{
	"asset":{
		"generator":"Khronos glTF Blender I/O v3.5.30",
		"version":"2.0"
	},
	"scene":0,
	"scenes":[
		{
			"name":"Scene",
			"nodes":[
				0
			]
		}
	],
	"nodes":[
		{
			"mesh":0,
			"name":"Plane.001",
			"rotation":[
				0,
				-0.0036522799637168646,
				0,
				0.9999933242797852
			],
			"scale":[
				120.18453979492188,
				120.1845474243164,
				120.18453979492188
			],
			"translation":[
				82.89107513427734,
				-0.06834255903959274,
				7.548104286193848
			]
		}
	],
	"materials":[
		{
			"doubleSided":true,
			"name":"Material.003",
			"pbrMetallicRoughness":{
				"baseColorFactor":[
					0.8387985825538635,
					0.6724427342414856,
					0.43415382504463196,
					1
				],
				"metallicFactor":0,
				"roughnessFactor":0.5
			}
		}
	],
	"meshes":[
		{
			"name":"Plane.004",
			"primitives":[
				{
					"attributes":{
						"POSITION":0,
						"TEXCOORD_0":1,
						"NORMAL":2
					},
					"indices":3,
					"material":0
				}
			]
		}
	],
	"accessors":[
		{
			"bufferView":0,
			"componentType":5126,
			"count":476,
			"max":[
				1.5344477891921997,
				9.000394493341446e-05,
				1.414656639099121
			],
			"min":[
				-2.1300437450408936,
				-1.8569746434993206e-11,
				-1.2277988195419312
			],
			"type":"VEC3"
		},
		{
			"bufferView":1,
			"componentType":5126,
			"count":476,
			"type":"VEC2"
		},
		{
			"bufferView":2,
			"componentType":5126,
			"count":476,
			"type":"VEC3"
		},
		{
			"bufferView":3,
			"componentType":5123,
			"count":1407,
			"type":"SCALAR"
		}
	],
	"bufferViews":[
		{
			"buffer":0,
			"byteLength":5712,
			"byteOffset":0,
			"target":34962
		},
		{
			"buffer":0,
			"byteLength":3808,
			"byteOffset":5712,
			"target":34962
		},
		{
			"buffer":0,
			"byteLength":5712,
			"byteOffset":9520,
			"target":34962
		},
		{
			"buffer":0,
			"byteLength":2814,
			"byteOffset":15232,
			"target":34963
		}
	],
	"buffers":[
		{
			"byteLength":18048,
			"uri":"path.bin"
		}
	]
}
