{
	"asset":{
		"generator":"Khronos glTF Blender I/O v3.5.30",
		"version":"2.0"
	},
	"scene":0,
	"scenes":[
		{
			"name":"Scene",
			"nodes":[
				0,
				1
			]
		}
	],
	"nodes":[
		{
			"mesh":0,
			"name":"Plane",
			"scale":[
				-177.51820373535156,
				-177.51820373535156,
				-177.51820373535156
			],
			"translation":[
				3.2653861045837402,
				4.663349628448486,
				15.26131820678711
			]
		},
		{
			"mesh":1,
			"name":"Plane.001",
			"rotation":[
				0,
				-0.0036522799637168646,
				0,
				0.9999933242797852
			],
			"scale":[
				120.18453979492188,
				120.1845474243164,
				120.18453979492188
			],
			"translation":[
				82.89107513427734,
				-0.06834255903959274,
				7.548104286193848
			]
		}
	],
	"materials":[
		{
			"doubleSided":true,
			"name":"Material.004",
			"pbrMetallicRoughness":{
				"baseColorTexture":{
					"index":0
				},
				"metallicFactor":0,
				"roughnessFactor":0.5
			}
		},
		{
			"doubleSided":true,
			"name":"Material.003",
			"pbrMetallicRoughness":{
				"baseColorTexture":{
					"index":1
				},
				"metallicFactor":0,
				"roughnessFactor":0.5
			}
		}
	],
	"meshes":[
		{
			"name":"Plane",
			"primitives":[
				{
					"attributes":{
						"POSITION":0,
						"TEXCOORD_0":1,
						"NORMAL":2
					},
					"indices":3,
					"material":0
				}
			]
		},
		{
			"name":"Plane.004",
			"primitives":[
				{
					"attributes":{
						"POSITION":4,
						"TEXCOORD_0":5,
						"NORMAL":6
					},
					"indices":7,
					"material":1
				}
			]
		}
	],
	"textures":[
		{
			"sampler":0,
			"source":0
		},
		{
			"sampler":0,
			"source":1
		}
	],
	"images":[
		{
			"mimeType":"image/jpeg",
			"name":"grass",
			"uri":"texture/grass.jpg"
		},
		{
			"mimeType":"image/jpeg",
			"name":"saaa",
			"uri":"texture/saaa.jpg"
		}
	],
	"accessors":[
		{
			"bufferView":0,
			"componentType":5126,
			"count":4,
			"max":[
				1,
				0,
				0.9000177383422852
			],
			"min":[
				-1.4599181413650513,
				0,
				-0.9160149693489075
			],
			"type":"VEC3"
		},
		{
			"bufferView":1,
			"componentType":5126,
			"count":4,
			"type":"VEC2"
		},
		{
			"bufferView":2,
			"componentType":5126,
			"count":4,
			"type":"VEC3"
		},
		{
			"bufferView":3,
			"componentType":5123,
			"count":6,
			"type":"SCALAR"
		},
		{
			"bufferView":4,
			"componentType":5126,
			"count":486,
			"max":[
				1.4860485792160034,
				1.239856689538854e-10,
				1.414656639099121
			],
			"min":[
				-2.1300437450408936,
				-1.8569746434993206e-11,
				-1.2277988195419312
			],
			"type":"VEC3"
		},
		{
			"bufferView":5,
			"componentType":5126,
			"count":486,
			"type":"VEC2"
		},
		{
			"bufferView":6,
			"componentType":5126,
			"count":486,
			"type":"VEC3"
		},
		{
			"bufferView":7,
			"componentType":5123,
			"count":1401,
			"type":"SCALAR"
		}
	],
	"bufferViews":[
		{
			"buffer":0,
			"byteLength":48,
			"byteOffset":0,
			"target":34962
		},
		{
			"buffer":0,
			"byteLength":32,
			"byteOffset":48,
			"target":34962
		},
		{
			"buffer":0,
			"byteLength":48,
			"byteOffset":80,
			"target":34962
		},
		{
			"buffer":0,
			"byteLength":12,
			"byteOffset":128,
			"target":34963
		},
		{
			"buffer":0,
			"byteLength":5832,
			"byteOffset":140,
			"target":34962
		},
		{
			"buffer":0,
			"byteLength":3888,
			"byteOffset":5972,
			"target":34962
		},
		{
			"buffer":0,
			"byteLength":5832,
			"byteOffset":9860,
			"target":34962
		},
		{
			"buffer":0,
			"byteLength":2802,
			"byteOffset":15692,
			"target":34963
		}
	],
	"samplers":[
		{
			"magFilter":9729,
			"minFilter":9987
		}
	],
	"buffers":[
		{
			"byteLength":18496,
			"uri":"path.bin"
		}
	]
}
