{
  "accessors": [
    {
      "bufferView": 2,
      "componentType": 5126,
      "count": 1118,
      "max": [
        1.9020577669143677,
        0.7192525863647461,
        0.7113323211669922
      ],
      "min": [
        -1.9020589590072632,
        -0.7192926406860352,
        -0.7113914489746094
      ],
      "type": "VEC3"
    },
    {
      "bufferView": 2,
      "byteOffset": 13416,
      "componentType": 5126,
      "count": 1118,
      "max": [
        0.9994363784790039,
        1.0,
        0.98900306224823
      ],
      "min": [
        -0.9994363784790039,
        -1.0,
        -0.98900306224823
      ],
      "type": "VEC3"
    },
    {
      "bufferView": 1,
      "componentType": 5126,
      "count": 1118,
      "max": [
        1.000000238418579,
        1.0
      ],
      "min": [
        0.0,
        0.0
      ],
      "type": "VEC2"
    },
    {
      "bufferView": 0,
      "componentType": 5125,
      "count": 5760,
      "type": "SCALAR"
    },
    {
      "bufferView": 2,
      "byteOffset": 26832,
      "componentType": 5126,
      "count": 3842,
      "max": [
        0.503524899482727,
        0.25627103447914124,
        0.6442620158195496
      ],
      "min": [
        -0.5059489607810974,
        -0.364734023809433,
        -0.7482417225837708
      ],
      "type": "VEC3"
    },
    {
      "bufferView": 2,
      "byteOffset": 72936,
      "componentType": 5126,
      "count": 3842,
      "max": [
        0.9996989965438843,
        0.8583749532699585,
        0.9999923706054688
      ],
      "min": [
        -0.9996989965438843,
        -0.8444284796714783,
        -0.9794908165931702
      ],
      "type": "VEC3"
    },
    {
      "bufferView": 1,
      "byteOffset": 8944,
      "componentType": 5126,
      "count": 3842,
      "max": [
        1.0,
        1.0
      ],
      "min": [
        0.0,
        0.0
      ],
      "type": "VEC2"
    },
    {
      "bufferView": 0,
      "byteOffset": 23040,
      "componentType": 5125,
      "count": 6324,
      "type": "SCALAR"
    },
    {
      "bufferView": 2,
      "byteOffset": 119040,
      "componentType": 5126,
      "count": 3842,
      "max": [
        0.48985034227371216,
        0.4182538092136383,
        0.6358929872512817
      ],
      "min": [
        -0.48750293254852295,
        -0.2513061463832855,
        -0.6769417524337769
      ],
      "type": "VEC3"
    },
    {
      "bufferView": 2,
      "byteOffset": 165144,
      "componentType": 5126,
      "count": 3842,
      "max": [
        0.9996979236602783,
        0.9997484683990479,
        0.999869704246521
      ],
      "min": [
        -0.9996979236602783,
        -0.8391597867012024,
        -0.9567980170249939
      ],
      "type": "VEC3"
    },
    {
      "bufferView": 1,
      "byteOffset": 39680,
      "componentType": 5126,
      "count": 3842,
      "max": [
        1.0,
        1.0
      ],
      "min": [
        0.0,
        0.0
      ],
      "type": "VEC2"
    },
    {
      "bufferView": 0,
      "byteOffset": 48336,
      "componentType": 5125,
      "count": 6324,
      "type": "SCALAR"
    },
    {
      "bufferView": 2,
      "byteOffset": 211248,
      "componentType": 5126,
      "count": 65532,
      "max": [
        4.506342887878418,
        5.631654739379883,
        21.000347137451172
      ],
      "min": [
        -4.106871604919434,
        -9.302413940429688,
        -25.69008445739746
      ],
      "type": "VEC3"
    },
    {
      "bufferView": 2,
      "byteOffset": 997632,
      "componentType": 5126,
      "count": 65532,
      "max": [
        0.9999842643737793,
        0.9999951124191284,
        0.9999877214431763
      ],
      "min": [
        -1.0,
        -0.9999865293502808,
        -0.9994394779205322
      ],
      "type": "VEC3"
    },
    {
      "bufferView": 3,
      "componentType": 5126,
      "count": 65532,
      "max": [
        0.9999818801879883,
        0.9997611045837402,
        0.9999815225601196,
        1.0
      ],
      "min": [
        -0.999950647354126,
        -0.9999898672103882,
        -0.9994715452194214,
        1.0
      ],
      "type": "VEC4"
    },
    {
      "bufferView": 1,
      "byteOffset": 70416,
      "componentType": 5126,
      "count": 65532,
      "max": [
        0.9269440174102783,
        0.999531090259552
      ],
      "min": [
        0.0008735787123441696,
        0.0009247837588191032
      ],
      "type": "VEC2"
    },
    {
      "bufferView": 0,
      "byteOffset": 73632,
      "componentType": 5125,
      "count": 345828,
      "type": "SCALAR"
    },
    {
      "bufferView": 2,
      "byteOffset": 1784016,
      "componentType": 5126,
      "count": 65532,
      "max": [
        4.710068225860596,
        5.552923202514648,
        21.000347137451172
      ],
      "min": [
        -4.710079193115234,
        -9.313251495361328,
        -25.597806930541992
      ],
      "type": "VEC3"
    },
    {
      "bufferView": 2,
      "byteOffset": 2570400,
      "componentType": 5126,
      "count": 65532,
      "max": [
        0.9999585151672363,
        0.9999951124191284,
        0.9999877214431763
      ],
      "min": [
        -0.9999945163726807,
        -0.9999284744262695,
        -0.9994897842407227
      ],
      "type": "VEC3"
    },
    {
      "bufferView": 3,
      "byteOffset": 1048512,
      "componentType": 5126,
      "count": 65532,
      "max": [
        1.0,
        0.9999827742576599,
        0.9999815225601196,
        1.0
      ],
      "min": [
        -0.9999842643737793,
        -0.9999338388442993,
        -0.9999898076057434,
        -1.0
      ],
      "type": "VEC4"
    },
    {
      "bufferView": 1,
      "byteOffset": 594672,
      "componentType": 5126,
      "count": 65532,
      "max": [
        0.9284544587135315,
        0.9999986290931702
      ],
      "min": [
        0.0,
        0.0
      ],
      "type": "VEC2"
    },
    {
      "bufferView": 0,
      "byteOffset": 1456944,
      "componentType": 5125,
      "count": 346767,
      "type": "SCALAR"
    },
    {
      "bufferView": 2,
      "byteOffset": 3356784,
      "componentType": 5126,
      "count": 17922,
      "max": [
        4.639344215393066,
        5.585206985473633,
        20.993024826049805
      ],
      "min": [
        -4.710079193115234,
        -9.239232063293457,
        -11.14463996887207
      ],
      "type": "VEC3"
    },
    {
      "bufferView": 2,
      "byteOffset": 3571848,
      "componentType": 5126,
      "count": 17922,
      "max": [
        0.9997968673706055,
        0.9997507333755493,
        0.9983275532722473
      ],
      "min": [
        -1.0,
        -0.9999336004257202,
        -0.9993811845779419
      ],
      "type": "VEC3"
    },
    {
      "bufferView": 3,
      "byteOffset": 2097024,
      "componentType": 5126,
      "count": 17922,
      "max": [
        1.0,
        0.9999827742576599,
        0.9998915195465088,
        1.0
      ],
      "min": [
        -0.998835563659668,
        -0.9999681115150452,
        -0.9999898076057434,
        -1.0
      ],
      "type": "VEC4"
    },
    {
      "bufferView": 1,
      "byteOffset": 1118928,
      "componentType": 5126,
      "count": 17922,
      "max": [
        0.923502504825592,
        0.98926842212677
      ],
      "min": [
        0.0,
        0.0
      ],
      "type": "VEC2"
    },
    {
      "bufferView": 0,
      "byteOffset": 2844012,
      "componentType": 5125,
      "count": 63237,
      "type": "SCALAR"
    }
  ],
  "asset": {
    "extras": {
      "author": "PAndras (https://sketchfab.com/PusztaiAndras)",
      "license": "CC-BY-4.0 (http://creativecommons.org/licenses/by/4.0/)",
      "source": "https://sketchfab.com/3d-models/allosaurus-6c5142e093a147bdb86e0eeb837b476c",
      "title": "Allosaurus"
    },
    "generator": "Sketchfab-12.68.0",
    "version": "2.0"
  },
  "bufferViews": [
    {
      "buffer": 0,
      "byteLength": 3096960,
      "name": "floatBufferViews",
      "target": 34963
    },
    {
      "buffer": 0,
      "byteLength": 1262304,
      "byteOffset": 3096960,
      "byteStride": 8,
      "name": "floatBufferViews",
      "target": 34962
    },
    {
      "buffer": 0,
      "byteLength": 3786912,
      "byteOffset": 4359264,
      "byteStride": 12,
      "name": "floatBufferViews",
      "target": 34962
    },
    {
      "buffer": 0,
      "byteLength": 2383776,
      "byteOffset": 8146176,
      "byteStride": 16,
      "name": "floatBufferViews",
      "target": 34962
    }
  ],
  "buffers": [
    {
      "byteLength": 10529952,
      "uri": "scene.bin"
    }
  ],
  "images": [
    {
      "uri": "textures/Material_baseColor.png"
    },
    {
      "uri": "textures/Material.001_baseColor.png"
    },
    {
      "uri": "textures/Material.001_metallicRoughness.png"
    },
    {
      "uri": "textures/Material.001_normal.png"
    }
  ],
  "materials": [
    {
      "doubleSided": true,
      "name": "Material",
      "pbrMetallicRoughness": {
        "baseColorTexture": {
          "index": 0
        },
        "metallicFactor": 0.9319765426919359,
        "roughnessFactor": 0.47539505925128744
      }
    },
    {
      "doubleSided": true,
      "name": "Material.033",
      "pbrMetallicRoughness": {
        "baseColorFactor": [
          0.19413198274092813,
          0.15754646106091044,
          0.15754646106091044,
          1.0
        ],
        "metallicFactor": 0.0,
        "roughnessFactor": 0.5
      }
    },
    {
      "doubleSided": true,
      "name": "Material.003",
      "pbrMetallicRoughness": {
        "baseColorFactor": [
          0.0736778947237429,
          0.0736778947237429,
          0.0736778947237429,
          1.0
        ],
        "metallicFactor": 0.0,
        "roughnessFactor": 0.5
      }
    },
    {
      "doubleSided": true,
      "name": "Material.001",
      "normalTexture": {
        "index": 3
      },
      "occlusionTexture": {
        "index": 2
      },
      "pbrMetallicRoughness": {
        "baseColorTexture": {
          "index": 1
        },
        "metallicRoughnessTexture": {
          "index": 2
        }
      }
    }
  ],
  "meshes": [
    {
      "name": "Object_0",
      "primitives": [
        {
          "attributes": {
            "NORMAL": 1,
            "POSITION": 0,
            "TEXCOORD_0": 2
          },
          "indices": 3,
          "material": 0,
          "mode": 4
        }
      ]
    },
    {
      "name": "Object_1",
      "primitives": [
        {
          "attributes": {
            "NORMAL": 5,
            "POSITION": 4,
            "TEXCOORD_0": 6
          },
          "indices": 7,
          "material": 1,
          "mode": 4
        }
      ]
    },
    {
      "name": "Object_2",
      "primitives": [
        {
          "attributes": {
            "NORMAL": 9,
            "POSITION": 8,
            "TEXCOORD_0": 10
          },
          "indices": 11,
          "material": 2,
          "mode": 4
        }
      ]
    },
    {
      "name": "Object_3",
      "primitives": [
        {
          "attributes": {
            "NORMAL": 13,
            "POSITION": 12,
            "TANGENT": 14,
            "TEXCOORD_0": 15
          },
          "indices": 16,
          "material": 3,
          "mode": 4
        }
      ]
    },
    {
      "name": "Object_4",
      "primitives": [
        {
          "attributes": {
            "NORMAL": 18,
            "POSITION": 17,
            "TANGENT": 19,
            "TEXCOORD_0": 20
          },
          "indices": 21,
          "material": 3,
          "mode": 4
        }
      ]
    },
    {
      "name": "Object_5",
      "primitives": [
        {
          "attributes": {
            "NORMAL": 23,
            "POSITION": 22,
            "TANGENT": 24,
            "TEXCOORD_0": 25
          },
          "indices": 26,
          "material": 3,
          "mode": 4
        }
      ]
    }
  ],
  "nodes": [
    {
      "children": [
        1
      ],
      "matrix": [
        1.0,
        0.0,
        0.0,
        0.0,
        0.0,
        2.220446049250313e-16,
        -1.0,
        0.0,
        0.0,
        1.0,
        2.220446049250313e-16,
        0.0,
        0.0,
        0.0,
        0.0,
        1.0
      ],
      "name": "Sketchfab_model"
    },
    {
      "children": [
        2
      ],
      "name": "root"
    },
    {
      "children": [
        3,
        5,
        7,
        9
      ],
      "matrix": [
        1.0,
        0.0,
        0.0,
        0.0,
        0.0,
        2.220446049250313e-16,
        1.0,
        0.0,
        0.0,
        -1.0,
        2.220446049250313e-16,
        0.0,
        0.0,
        0.0,
        0.0,
        1.0
      ],
      "name": "GLTF_SceneRootNode"
    },
    {
      "children": [
        4
      ],
      "matrix": [
        1.0,
        0.0,
        0.0,
        0.0,
        0.0,
        1.0,
        0.0,
        0.0,
        0.0,
        0.0,
        1.0,
        0.0,
        0.0,
        6.8484039306640625,
        29.288881301879883,
        1.0
      ],
      "name": "Sphere.001_2"
    },
    {
      "mesh": 0,
      "name": "Object_4"
    },
    {
      "children": [
        6
      ],
      "matrix": [
        1.9899685382843018,
        0.0,
        0.0,
        0.0,
        0.0,
        3.927401403968969,
        -0.2576762086260843,
        0.0,
        0.0,
        0.2576762086260843,
        3.927401403968969,
        0.0,
        0.025499137118458748,
        3.5169506072998047,
        33.89145278930664,
        1.0
      ],
      "name": "fog.010_3"
    },
    {
      "mesh": 1,
      "name": "Object_6"
    },
    {
      "children": [
        8
      ],
      "matrix": [
        2.7549424171447754,
        0.0,
        0.0,
        0.0,
        0.0,
        3.648041596133972,
        1.2213612996038947,
        0.0,
        0.0,
        -1.2213612996038947,
        3.648041596133972,
        0.0,
        -0.021218424662947655,
        0.607843816280365,
        31.448251724243164,
        1.0
      ],
      "name": "fog.011_4"
    },
    {
      "mesh": 2,
      "name": "Object_8"
    },
    {
      "children": [
        10,
        11,
        12
      ],
      "matrix": [
        1.7513571977615356,
        0.0,
        0.0,
        0.0,
        0.0,
        1.751357078552246,
        0.0,
        0.0,
        0.0,
        0.0,
        1.7513571977615356,
        0.0,
        0.0,
        0.0,
        0.0,
        1.0
      ],
      "name": "sculptris_mesh32_005_Baked_5"
    },
    {
      "mesh": 3,
      "name": "Object_10"
    },
    {
      "mesh": 4,
      "name": "Object_11"
    },
    {
      "mesh": 5,
      "name": "Object_12"
    }
  ],
  "samplers": [
    {
      "magFilter": 9729,
      "minFilter": 9987,
      "wrapS": 10497,
      "wrapT": 10497
    }
  ],
  "scene": 0,
  "scenes": [
    {
      "name": "Sketchfab_Scene",
      "nodes": [
        0
      ]
    }
  ],
  "textures": [
    {
      "sampler": 0,
      "source": 0
    },
    {
      "sampler": 0,
      "source": 1
    },
    {
      "sampler": 0,
      "source": 2
    },
    {
      "sampler": 0,
      "source": 3
    }
  ]
}
